<?xml version="1.0" standalone="no"?><!DOCTYPE svg PUBLIC "-//W3C//DTD SVG 1.1//EN" "http://www.w3.org/Graphics/SVG/1.1/DTD/svg11.dtd"><svg t="1665716095945" class="icon" viewBox="0 0 1024 1024" version="1.1" xmlns="http://www.w3.org/2000/svg" p-id="11756" xmlns:xlink="http://www.w3.org/1999/xlink" width="200" height="200"><path d="M949.333333 917.333333H917.333333V117.333333A74.88 74.88 0 0 0 842.666667 42.666667h-661.333334A74.88 74.88 0 0 0 106.666667 117.333333V917.333333H74.666667a32 32 0 0 0 0 64h128a32 32 0 0 0 0-64H170.666667V117.333333a10.666667 10.666667 0 0 1 10.666666-10.666666h661.333334a10.666667 10.666667 0 0 1 10.666666 10.666666V917.333333h-32a32 32 0 0 0 0 64h128a32 32 0 0 0 0-64z" fill="#1296db" p-id="11757"></path><path d="M538.666667 245.333333h-181.333334v490.666667a32 32 0 0 0 64 0v-170.666667h117.333334a160 160 0 0 0 0-320z m0 256h-117.333334v-192h117.333334a96 96 0 0 1 0 192z" fill="#1296db" p-id="11758"></path></svg>