<?xml version="1.0" standalone="no"?><!DOCTYPE svg PUBLIC "-//W3C//DTD SVG 1.1//EN" "http://www.w3.org/Graphics/SVG/1.1/DTD/svg11.dtd"><svg t="1665715694486" class="icon" viewBox="0 0 1033 1024" version="1.1" xmlns="http://www.w3.org/2000/svg" p-id="3107" xmlns:xlink="http://www.w3.org/1999/xlink" width="201.7578125" height="200"><path d="M672 275.2C672 121.6 547.2 0 393.6 0H0v1008h140.8V550.4h252.8c153.6 0 278.4-124.8 278.4-275.2z m-300.8 131.2H140.8V140.8h230.4c67.2 3.2 128 64 128 131.2 3.2 67.2-60.8 131.2-128 134.4zM1017.6 761.6c-3.2-9.6-16-19.2-16-19.2L950.4 608c-9.6-25.6-41.6-38.4-54.4-38.4h-265.6c-12.8 0-44.8 12.8-54.4 38.4l-51.2 137.6s-12.8 9.6-16 19.2c-3.2 9.6-9.6 16-9.6 76.8 0 57.6 12.8 80 25.6 86.4l9.6 6.4v54.4c0 19.2 3.2 22.4 22.4 22.4h38.4c16 0 28.8 0 28.8-19.2v-54.4h284.8V992c0 19.2 12.8 19.2 28.8 19.2h38.4c16 0 22.4-6.4 22.4-22.4v-54.4l9.6-6.4c12.8-6.4 25.6-28.8 25.6-86.4-6.4-64-9.6-70.4-16-80z m-428.8-35.2c3.2-6.4 16-67.2 22.4-89.6 3.2-6.4 19.2-28.8 38.4-28.8h220.8c19.2 0 35.2 19.2 38.4 28.8 6.4 22.4 19.2 80 22.4 89.6 6.4 9.6-3.2 9.6-3.2 9.6H595.2s-6.4 0-6.4-9.6z m6.4 147.2c-22.4 0-41.6-19.2-41.6-41.6 0-22.4 19.2-41.6 41.6-41.6 22.4 0 41.6 19.2 41.6 41.6 0 25.6-19.2 41.6-41.6 41.6z m336 0c-22.4 0-41.6-19.2-41.6-41.6 0-22.4 19.2-41.6 41.6-41.6 22.4 0 41.6 19.2 41.6 41.6-3.2 25.6-19.2 41.6-41.6 41.6z" fill="#1296db" p-id="3108"></path></svg>