<?xml version="1.0" standalone="no"?><!DOCTYPE svg PUBLIC "-//W3C//DTD SVG 1.1//EN" "http://www.w3.org/Graphics/SVG/1.1/DTD/svg11.dtd"><svg t="1665715982159" class="icon" viewBox="0 0 1024 1024" version="1.1" xmlns="http://www.w3.org/2000/svg" p-id="10190" xmlns:xlink="http://www.w3.org/1999/xlink" width="200" height="200"><path d="M964.715789 363.789474C900.042105 169.768421 716.8 37.726316 512 37.726316c-161.684211 0-309.894737 80.842105-398.821053 215.578947l-26.947368-10.778947c-2.694737-2.694737-5.389474-2.694737-8.084211-2.694737H70.063158s-2.694737 0-2.694737 2.694737l-2.694737 2.694737-2.694737 2.694736s0 2.694737-2.694736 2.694737v5.389474l8.08421 191.326316v5.389473c0 2.694737 2.694737 2.694737 5.389474 5.389474h2.694737c2.694737 0 5.389474 2.694737 8.08421 2.694737 2.694737 0 5.389474 0 8.084211-2.694737l177.852631-107.789474c2.694737-2.694737 5.389474-5.389474 5.389474-8.08421v-2.694737-2.694737-2.694737-2.694736-2.694737-2.694737l-2.694737-2.694737-2.694737-2.694737-32.336842-16.168421c64.673684-86.231579 164.378947-134.736842 272.168421-134.736842 26.947368 0 56.589474 2.694737 83.536842 10.778947 10.778947 2.694737 21.557895-2.694737 21.557895-13.473684 2.694737-10.778947-2.694737-21.557895-13.473684-21.557895-26.947368-5.389474-56.589474-10.778947-88.926316-10.778947-126.652632 0-245.221053 61.978947-315.284211 169.768421v13.473684s0 2.694737 2.694737 2.694737l2.694737 2.694737s0 2.694737 2.694737 2.694737l21.557895 10.778947-121.263158 72.757895-5.389474-126.652632 13.473684 13.473685H121.263158c2.694737 0 5.389474 0 8.08421-2.694737h2.694737c2.694737-2.694737 5.389474-2.694737 5.389474-5.389474 80.842105-132.042105 220.968421-212.884211 377.263158-212.88421 188.631579 0 355.705263 121.263158 417.68421 299.115789 2.694737 8.084211 10.778947 13.473684 18.863158 13.473684h5.389474c5.389474-5.389474 10.778947-13.473684 8.08421-24.252631zM948.547368 582.063158v-5.389474c0-2.694737 0-2.694737-2.694736-2.694737 0-2.694737-2.694737-2.694737-5.389474-5.389473-2.694737 0-2.694737-2.694737-5.389474-2.694737h-2.694737-2.694736-2.694737-2.694737s-2.694737 0-2.694737 2.694737h-2.694737l-169.768421 118.568421s0 2.694737-2.694737 2.694737l-2.694737 2.694736s0 2.694737-2.694736 2.694737v13.473684c0 2.694737 0 2.694737 2.694736 5.389474 0 2.694737 2.694737 2.694737 2.694737 5.389474l24.252632 16.168421c-64.673684 78.147368-161.684211 123.957895-264.084211 123.957895-32.336842 0-64.673684-5.389474-94.315789-13.473685-10.778947-2.694737-21.557895 2.694737-24.252632 13.473685-2.694737 10.778947 2.694737 21.557895 13.473684 24.252631 35.031579 10.778947 70.063158 16.168421 105.094737 16.168421 121.263158 0 234.442105-56.589474 307.2-153.6v-2.694737s0-2.694737 2.694737-2.694736v-2.694737-2.694737-2.694737-2.694737l-2.694737-2.694737-2.694737-2.694736-16.168421-24.252632 118.568421-83.536842 5.389474 137.431579-13.473684-8.084211h-2.694737-2.694737-2.694737-2.694736-2.694737s-2.694737 0-2.694737 2.694737l-2.694737 2.694737s-2.694737 0-2.694737 2.694737c-80.842105 123.957895-218.273684 199.410526-366.48421 199.410526-180.547368 0-344.926316-113.178947-409.6-282.947368-2.694737-10.778947-13.473684-13.473684-24.252632-10.778948s-13.473684 13.473684-10.778947 24.252632c70.063158 183.242105 247.915789 307.2 444.631579 307.2 156.294737 0 299.115789-75.452632 388.042105-202.105263l26.947368 16.168421c2.694737 0 5.389474 2.694737 8.084211 2.694737 2.694737 0 5.389474 0 8.08421-2.694737h2.694737l5.389474-5.389474v-2.694737-2.694737l-8.084211-212.88421z" fill="#1296db" p-id="10191"></path><path d="M393.431579 412.294737l-29.642105-21.557895h-2.694737s-2.694737 0-2.694737-2.694737h-2.694737-35.031579c-10.778947 0-18.863158 8.084211-18.863158 18.863158s8.084211 18.863158 18.863158 18.863158h24.252632l8.08421 5.389474-29.642105 35.031579v2.694737l-2.694737 2.694736V595.536842c0 10.778947 8.084211 18.863158 18.863158 18.863158h2.694737v29.642105c0 10.778947 8.084211 18.863158 18.863158 18.863158h91.621052c10.778947 0 18.863158-8.084211 18.863158-18.863158v-29.642105h126.652632v29.642105c0 10.778947 8.084211 18.863158 18.863158 18.863158h91.621052c10.778947 0 18.863158-8.084211 18.863158-18.863158v-29.642105c10.778947 0 18.863158-8.084211 18.863158-18.863158v-118.568421-2.694737-2.694737s0-2.694737-2.694737-2.694736v-2.694737l-32.336842-37.726316 2.694737-2.694737h24.252632c10.778947 0 18.863158-8.084211 18.863158-18.863158s-8.084211-18.863158-18.863158-18.863158h-29.642106-2.694736-2.694737s-2.694737 0-2.694737 2.694737h-2.694737l-53.894737 45.810526H425.768421l-32.336842-24.252631z m40.421053 212.88421h-53.894737v-10.778947h53.894737v10.778947z m253.305263 0h-53.894737v-10.778947h53.894737v10.778947z m21.557894-140.126315v91.621052h-350.315789V485.052632l26.947368-32.336843 24.252632 18.863158H649.431579c2.694737 0 5.389474 0 8.08421-2.694736 0 0 2.694737 0 2.694737-2.694737 0 0 2.694737 0 2.694737-2.694737l21.557895-18.863158 24.252631 40.421053z" fill="#1296db" p-id="10192"></path><path d="M452.715789 506.610526h-64.673684c-10.778947 0-18.863158 8.084211-18.863158 18.863158s8.084211 18.863158 18.863158 18.863158h64.673684c10.778947 0 18.863158-8.084211 18.863158-18.863158s-8.084211-18.863158-18.863158-18.863158zM649.431579 390.736842c10.778947 0 18.863158-8.084211 18.863158-18.863158V323.368421c0-10.778947-8.084211-18.863158-18.863158-18.863158h-229.052632c-10.778947 0-18.863158 8.084211-18.863158 18.863158v48.505263c0 10.778947 8.084211 18.863158 18.863158 18.863158s18.863158-8.084211 18.863158-18.863158v-29.642105H630.568421v29.642105c0 10.778947 8.084211 18.863158 18.863158 18.863158zM598.231579 525.473684c0 10.778947 8.084211 18.863158 18.863158 18.863158h64.673684c10.778947 0 18.863158-8.084211 18.863158-18.863158s-8.084211-18.863158-18.863158-18.863158h-64.673684c-10.778947 0-18.863158 8.084211-18.863158 18.863158z" fill="#1296db" p-id="10193"></path></svg>