<?xml version="1.0" standalone="no"?><!DOCTYPE svg PUBLIC "-//W3C//DTD SVG 1.1//EN" "http://www.w3.org/Graphics/SVG/1.1/DTD/svg11.dtd"><svg t="1665715790008" class="icon" viewBox="0 0 1024 1024" version="1.1" xmlns="http://www.w3.org/2000/svg" p-id="5431" xmlns:xlink="http://www.w3.org/1999/xlink" width="200" height="200"><path d="M872.727273 69.818182h-721.454546A81.454545 81.454545 0 0 0 69.818182 151.272727v721.454546A81.454545 81.454545 0 0 0 151.272727 954.181818h721.454546a81.454545 81.454545 0 0 0 81.454545-81.454545v-721.454546A81.454545 81.454545 0 0 0 872.727273 69.818182z m11.636363 802.909091a11.869091 11.869091 0 0 1-11.636363 11.636363h-721.454546a11.869091 11.869091 0 0 1-11.636363-11.636363v-721.454546a11.869091 11.869091 0 0 1 11.636363-11.636363h721.454546a11.869091 11.869091 0 0 1 11.636363 11.636363z" p-id="5432" fill="#1296db"></path><path d="M599.970909 232.727273H319.069091a34.909091 34.909091 0 0 0-34.909091 34.909091v488.727272a34.909091 34.909091 0 0 0 69.818182 0v-231.563636h245.992727a143.127273 143.127273 0 0 0 139.636364-146.152727 143.127273 143.127273 0 0 0-139.636364-145.92z m0 222.254545H353.978182V302.545455h245.992727a73.309091 73.309091 0 0 1 69.818182 76.101818 73.541818 73.541818 0 0 1-69.818182 76.334545z" p-id="5433" fill="#1296db"></path></svg>