<?xml version="1.0" standalone="no"?><!DOCTYPE svg PUBLIC "-//W3C//DTD SVG 1.1//EN" "http://www.w3.org/Graphics/SVG/1.1/DTD/svg11.dtd"><svg t="1665715612550" class="icon" viewBox="0 0 1024 1024" version="1.1" xmlns="http://www.w3.org/2000/svg" p-id="1807" xmlns:xlink="http://www.w3.org/1999/xlink" width="200" height="200"><path d="M575.764476 1024v-127.947661h447.816815v127.947661H575.764476z m127.947662-383.842984h319.869153v127.947661H703.712138v-127.947661z m127.947661-255.895323h191.921492v127.947661h-191.921492v-127.947661z m-303.875696 223.108735v0.607751A424.594314 424.594314 0 0 0 95.960746 1024H0a512.974162 512.974162 0 0 1 332.056168-475.069667 303.875696 303.875696 0 1 1 195.727935 58.440095zM511.790646 96.379455a207.91495 207.91495 0 1 0 207.914949 207.91495A208.138858 208.138858 0 0 0 511.790646 96.379455z" fill="#1296db" p-id="1808"></path></svg>